<?xml version="1.0" standalone="no"?>
<!DOCTYPE svg PUBLIC "-//W3C//DTD SVG 20010904//EN"
 "http://www.w3.org/TR/2001/REC-SVG-20010904/DTD/svg10.dtd">
<svg version="1.0" xmlns="http://www.w3.org/2000/svg"
 width="512.000000pt" height="512.000000pt" viewBox="0 0 512.000000 512.000000"
 preserveAspectRatio="xMidYMid meet">
<metadata>
Created by potrace 1.14, written by Peter Selinger 2001-2017
</metadata>
<g transform="translate(0.000000,512.000000) scale(0.100000,-0.100000)"
fill="#000000" stroke="none">
<path d="M0 2560 l0 -2560 2560 0 2560 0 0 2560 0 2560 -2560 0 -2560 0 0
-2560z m1988 1416 c78 -36 151 -113 184 -194 23 -57 23 -60 23 -497 0 -394 -2
-445 -17 -484 -44 -108 -143 -197 -254 -226 -86 -22 -822 -22 -909 0 -109 28
-209 118 -253 226 -15 39 -17 90 -17 484 0 436 0 440 23 497 28 68 99 151 156
180 90 47 97 47 561 45 l440 -2 63 -29z m2287 -166 c76 -37 118 -126 96 -202
-18 -57 -48 -95 -96 -118 -40 -19 -62 -20 -806 -20 l-765 0 -44 23 c-132 66
-132 248 0 315 l44 22 765 0 c744 0 766 -1 806 -20z m0 -1090 c76 -37 118
-126 96 -202 -18 -57 -48 -95 -96 -118 -40 -19 -62 -20 -806 -20 l-765 0 -44
23 c-132 66 -132 248 0 315 l44 22 765 0 c744 0 766 -1 806 -20z m-2197 -535
c75 -32 115 -90 115 -170 0 -28 -7 -64 -16 -80 -23 -44 -787 -802 -820 -814
-40 -15 -102 -14 -144 4 -40 17 -400 368 -435 423 -43 70 -42 151 4 215 43 60
152 86 221 51 18 -9 89 -73 160 -142 l127 -127 313 312 c191 191 326 318 347
327 45 20 82 20 128 1z m2197 -555 c76 -37 118 -126 96 -202 -18 -57 -48 -95
-96 -118 -40 -19 -62 -20 -806 -20 l-765 0 -44 23 c-132 66 -132 248 0 315
l44 22 765 0 c744 0 766 -1 806 -20z"/>
<path d="M1110 3285 l0 -365 360 0 360 0 0 365 0 365 -360 0 -360 0 0 -365z"/>
</g>
</svg>
