<?xml version="1.0" standalone="no"?>
<!DOCTYPE svg PUBLIC "-//W3C//DTD SVG 20010904//EN"
 "http://www.w3.org/TR/2001/REC-SVG-20010904/DTD/svg10.dtd">
<svg version="1.0" xmlns="http://www.w3.org/2000/svg"
 width="512.000000pt" height="512.000000pt" viewBox="0 0 512.000000 512.000000"
 preserveAspectRatio="xMidYMid meet">
<metadata>
Created by potrace 1.14, written by Peter Selinger 2001-2017
</metadata>
<g transform="translate(0.000000,512.000000) scale(0.100000,-0.100000)"
fill="#000000" stroke="none">
<path d="M1005 3996 c-111 -35 -196 -113 -237 -214 -23 -57 -23 -61 -23 -497
0 -394 2 -445 17 -484 44 -108 144 -198 253 -226 87 -22 823 -22 909 0 111 29
210 118 254 226 15 39 17 90 17 484 0 437 0 440 -23 497 -33 81 -106 158 -184
194 l-63 29 -440 2 c-336 2 -449 -1 -480 -11z m825 -711 l0 -365 -360 0 -360
0 0 365 0 365 360 0 360 0 0 -365z"/>
<path d="M2660 3808 c-132 -67 -132 -249 0 -315 l44 -23 765 0 c744 0 766 1
806 20 48 23 78 61 96 118 22 76 -20 165 -96 202 -40 19 -62 20 -806 20 l-765
0 -44 -22z"/>
<path d="M2660 2718 c-132 -67 -132 -249 0 -315 l44 -23 765 0 c744 0 766 1
806 20 48 23 78 61 96 118 22 76 -20 165 -96 202 -40 19 -62 20 -806 20 l-765
0 -44 -22z"/>
<path d="M1950 2184 c-21 -9 -156 -136 -347 -327 l-313 -312 -127 127 c-71 69
-142 133 -160 142 -69 35 -178 9 -221 -51 -46 -64 -47 -145 -4 -215 35 -55
395 -406 435 -423 42 -18 104 -19 144 -4 33 12 797 770 820 814 9 16 16 52 16
80 0 80 -40 138 -115 170 -46 19 -83 19 -128 -1z"/>
<path d="M2660 1628 c-132 -67 -132 -249 0 -315 l44 -23 765 0 c744 0 766 1
806 20 48 23 78 61 96 118 22 76 -20 165 -96 202 -40 19 -62 20 -806 20 l-765
0 -44 -22z"/>
</g>
</svg>
